HIERARCHY
ROOT Hips
{
	OFFSET 0.00000 0.00000 0.00000
	CHANNELS 6 Xposition Yposition Zposition Zrotation Yrotation Xrotation 
	JOINT LHipJoint
	{
		OFFSET 0 0 0
		CHANNELS 3 Zrotation Yrotation Xrotation
		JOINT LeftUpLeg
		{
			OFFSET 1.56857 -1.73443 1.15205
			CHANNELS 3 Zrotation Yrotation Xrotation
			JOINT LeftLeg
			{
				OFFSET 2.39362 -6.57643 0.00000
				CHANNELS 3 Zrotation Yrotation Xrotation
				JOINT LeftFoot
				{
					OFFSET 2.50952 -6.89485 0.00000
					CHANNELS 3 Zrotation Yrotation Xrotation
					JOINT LeftToeBase
					{
						OFFSET 0.17171 -0.47178 1.88682
						CHANNELS 3 Zrotation Yrotation Xrotation
						End Site
						{
							OFFSET 0.00000 -0.00000 0.98146
						}
					}
				}
			}
		}
	}
	JOINT RHipJoint
	{
		OFFSET 0 0 0
		CHANNELS 3 Zrotation Yrotation Xrotation
		JOINT RightUpLeg
		{
			OFFSET -1.28153 -1.73443 1.15205
			CHANNELS 3 Zrotation Yrotation Xrotation
			JOINT RightLeg
			{
				OFFSET -2.26861 -6.23296 0.00000
				CHANNELS 3 Zrotation Yrotation Xrotation
				JOINT RightFoot
				{
					OFFSET -2.54143 -6.98254 0.00000
					CHANNELS 3 Zrotation Yrotation Xrotation
					JOINT RightToeBase
					{
						OFFSET -0.23309 -0.64041 1.93119
						CHANNELS 3 Zrotation Yrotation Xrotation
						End Site
						{
							OFFSET -0.00000 -0.00000 1.02013
						}
					}
				}
			}
		}
	}
	JOINT LowerBack
	{
		OFFSET 0 0 0
		CHANNELS 3 Zrotation Yrotation Xrotation
		JOINT Spine
		{
			OFFSET -0.07096 2.10460 -0.27878
			CHANNELS 3 Zrotation Yrotation Xrotation
			JOINT Spine1
			{
				OFFSET -0.00826 2.13662 -0.08279
				CHANNELS 3 Zrotation Yrotation Xrotation
				JOINT Neck
				{
					OFFSET 0 0 0
					CHANNELS 3 Zrotation Yrotation Xrotation
					JOINT Neck1
					{
						OFFSET 0.03239 1.77799 0.24435
						CHANNELS 3 Zrotation Yrotation Xrotation
						JOINT Head
						{
							OFFSET 0.01026 1.74194 -0.49664
							CHANNELS 3 Zrotation Yrotation Xrotation
							End Site
							{
								OFFSET 0.00170 1.83057 -0.19653
							}
						}
					}
				}
				JOINT LeftShoulder
				{
					OFFSET 0 0 0
					CHANNELS 3 Zrotation Yrotation Xrotation
					JOINT LeftArm
					{
						OFFSET 3.19178 1.35907 -0.31412
						CHANNELS 3 Zrotation Yrotation Xrotation
						JOINT LeftForeArm
						{
							OFFSET 4.85247 -0.00000 -0.00000
							CHANNELS 3 Zrotation Yrotation Xrotation
							JOINT LeftHand
							{
								OFFSET 3.55584 -0.00000 0.00000
								CHANNELS 3 Zrotation Yrotation Xrotation
								JOINT LeftFingerBase
								{
									OFFSET 0 0 0
									CHANNELS 3 Zrotation Yrotation Xrotation
									JOINT LeftHandIndex1
									{
										OFFSET 0.69320 -0.00000 0.00000
										CHANNELS 3 Zrotation Yrotation Xrotation
										End Site
										{
											OFFSET 0.55888 -0.00000 0.00000
										}
									}
								}
								JOINT LThumb
								{
									OFFSET 0 0 0
									CHANNELS 3 Zrotation Yrotation Xrotation
									End Site
									{
										OFFSET 0.56741 -0.00000 0.56741
									}
								}
							}
						}
					}
				}
				JOINT RightShoulder
				{
					OFFSET 0 0 0
					CHANNELS 3 Zrotation Yrotation Xrotation
					JOINT RightArm
					{
						OFFSET -3.28999 1.24191 -0.26899
						CHANNELS 3 Zrotation Yrotation Xrotation
						JOINT RightForeArm
						{
							OFFSET -4.64462 -0.00000 0.00000
							CHANNELS 3 Zrotation Yrotation Xrotation
							JOINT RightHand
							{
								OFFSET -3.40703 -0.00000 0.00000
								CHANNELS 3 Zrotation Yrotation Xrotation
								JOINT RightFingerBase
								{
									OFFSET 0 0 0
									CHANNELS 3 Zrotation Yrotation Xrotation
									JOINT RightHandIndex1
									{
										OFFSET -0.61958 -0.00000 0.00000
										CHANNELS 3 Zrotation Yrotation Xrotation
										End Site
										{
											OFFSET -0.49952 -0.00000 0.00000
										}
									}
								}
								JOINT RThumb
								{
									OFFSET 0 0 0
									CHANNELS 3 Zrotation Yrotation Xrotation
									End Site
									{
										OFFSET -0.50715 -0.00000 0.50715
									}
								}
							}
						}
					}
				}
			}
		}
	}
}
MOTION
Frames: 13
Frame Time: 0.0240964
0.00 0.00 0.00 -199.8460 71.3574 -221.1220 0.0000 0.0000 0.0000 -35.4612 6.3394 5.0446 4.2101 12.4348 37.2880 1.6150 -5.6660 -22.8607 0.4484 4.2961 11.9113 0.0000 0.0000 0.0000 -8.0848 1.8789 -20.9596 -8.1500 -16.2285 53.1011 -0.6749 -7.4173 -19.9495 -0.5600 -4.7932 13.3196 -11.1719 -0.3522 20.6030 -3.5469 -2.9244 2.7484 3.2121 -0.9619 -8.1305 8.4617 2.0307 -26.5925 3.9838 -1.2229 17.3122 -0.1109 0.5940 9.8849 -0.0000 -0.0000 0.0000 -83.7646 -4.3577 56.6485 44.2429 -50.3921 -21.6539 -0.0000 0.0000 -7.4670 35.1812 -25.6587 -16.9744 -7.1250 0.0000 -0.0000 3.2240 -0.4221 -3.2528 -0.0000 -0.0000 0.0000 -18.7063 16.9230 -37.2364 -75.5859 59.2002 -47.5506 0.0000 -0.0000 -51.5565 -31.3319 -22.7190 13.2308 7.1250 -0.0000 -0.0000 -2.5667 -56.0747 0.6976
0.00 0.00 0.00 -198.8400 72.5365 -215.8050 0.0000 0.0000 0.0000 -37.6893 6.6658 7.5937 4.7613 13.1098 39.7808 2.7592 -7.2050 -30.0717 0.2992 3.5173 9.7224 0.0000 0.0000 0.0000 -7.2193 5.8759 -55.1736 -7.7213 -15.9104 51.5527 -0.7519 -7.0529 -20.4232 -0.1955 -2.8471 7.8534 -10.8073 -3.3315 21.1848 0.0060 -6.4546 3.8214 7.7462 -2.8133 -6.3566 9.7752 4.9442 -27.0236 5.4269 1.6976 20.4006 0.7559 2.3682 11.1999 -0.0000 0.0000 0.0000 -75.8493 -40.1943 60.0883 55.7258 -55.0590 -30.8101 -0.0000 0.0000 -3.5398 48.8236 -28.9790 -28.9815 -7.1250 0.0000 -0.0000 10.0647 -9.5459 -11.7623 -0.0000 0.0000 0.0000 -18.2967 2.7242 -42.6975 -53.2406 54.2217 -28.7832 0.0000 -0.0000 -43.9099 -32.5378 -25.4414 15.3271 7.1250 -0.0000 -0.0000 -3.3443 -59.3845 1.1758
0.00 0.00 0.00 -217.7700 78.5988 -233.6440 0.0000 0.0000 0.0000 -40.3115 12.4341 15.7219 2.3364 9.5342 27.4813 1.7752 -2.4391 -24.5437 0.3301 3.6926 10.2135 0.0000 0.0000 0.0000 4.1384 9.9593 -69.1105 -11.3706 -18.1117 63.9795 -0.7988 -1.7818 -17.6174 -0.0086 0.5992 -1.6466 -9.6575 -3.6814 19.7968 2.9718 -6.2486 4.5560 10.1393 -2.8928 -4.6179 11.6613 6.0479 -25.1706 0.1390 4.0312 25.7830 -1.0896 3.0289 13.1525 0.0000 -0.0000 0.0000 -54.1732 -47.6363 39.3460 64.0958 -57.3061 -37.7692 -0.0000 0.0000 -1.7866 50.9995 -28.5069 -30.5135 -7.1250 0.0000 -0.0000 11.3680 -10.1100 -13.4302 0.0000 -0.0000 0.0000 -15.9153 3.0627 -41.8497 -46.5929 51.5254 -23.4793 0.0000 -0.0000 -42.4615 -31.9813 -28.2585 16.4692 7.1250 -0.0000 -0.0000 -1.8291 -62.3328 0.7708
0.00 0.00 0.00 -254.8110 80.0977 -267.0500 0.0000 0.0000 0.0000 -43.7417 14.9564 15.3099 1.5984 7.9741 22.6354 0.0515 3.4309 -6.8706 0.0133 0.7440 2.0447 0.0000 0.0000 0.0000 12.6006 14.1788 -73.8484 -15.8232 -19.5765 77.7046 -0.4695 3.6371 -12.2116 -0.0746 1.7614 -4.8468 -8.1959 -3.6484 17.8602 5.6675 -5.6271 4.0596 12.0517 -2.6273 -4.1322 12.0921 6.2367 -21.4827 -4.0233 6.1607 28.7108 -2.4799 3.5653 13.9181 -0.0000 0.0000 0.0000 -30.3063 -44.2848 20.2231 61.9586 -56.8096 -35.9755 -0.0000 0.0000 -7.5149 60.2006 -31.3611 -42.2628 -7.1250 0.0000 -0.0000 15.2099 -19.3486 -19.9498 -0.0000 0.0000 0.0000 -12.2340 0.6974 -35.3296 -42.5131 49.4903 -20.3299 0.0000 -0.0000 -43.8946 -25.6461 -30.7899 13.8076 7.1250 -0.0000 -0.0000 7.2134 -63.3045 -3.2124
0.00 0.00 0.00 -274.1480 73.7178 -282.1520 0.0000 0.0000 0.0000 -46.5382 16.7129 7.0548 3.1990 11.0104 32.3149 -0.0027 1.8591 -2.3909 0.3926 4.0235 11.1429 0.0000 0.0000 0.0000 12.6947 11.7753 -66.8032 -18.4765 -19.9443 85.5417 0.0702 4.8942 3.2643 -0.0473 -1.4034 3.8596 -10.0948 -3.3195 18.2762 6.5482 -5.4816 4.2154 14.2387 -2.5666 -3.9059 10.0531 5.5285 -20.8647 -4.9411 6.3633 30.0536 -2.5028 3.3468 14.3199 0.0000 0.0000 0.0000 -14.1425 -27.8492 11.0486 56.7879 -55.3914 -31.6826 -0.0000 0.0000 -8.1963 61.0290 -30.9295 -42.8724 -7.1250 0.0000 -0.0000 15.7906 -19.4732 -20.7787 0.0000 0.0000 0.0000 2.5869 -6.2308 -22.9172 -42.7213 49.6020 -20.4883 0.0000 -0.0000 -43.9569 -27.3675 -32.1161 15.3865 7.1250 -0.0000 -0.0000 5.9376 -65.1401 -2.8960
0.00 0.00 0.00 -273.8560 68.5440 -279.1270 0.0000 0.0000 0.0000 -37.0572 18.9659 0.5519 7.3059 15.5842 50.0220 -0.0776 7.6829 -9.0690 0.6834 5.2854 14.7245 0.0000 0.0000 0.0000 11.0896 5.6035 -49.5799 -13.0629 -18.8048 69.3208 0.1122 8.5089 9.6053 -0.0515 -1.4640 4.0266 -12.2530 -2.4022 17.9828 4.2433 -4.7919 4.7946 12.6508 -2.2900 -3.3514 8.4803 3.7046 -21.5861 -3.9106 3.9200 30.8747 -2.2828 2.2796 14.5248 -0.0000 0.0000 0.0000 -15.6945 -17.6725 21.8650 47.6505 -52.0028 -24.3100 -0.0000 0.0000 -8.5133 46.1053 -20.6438 -20.1243 -7.1250 0.0000 -0.0000 10.7482 1.8939 -10.5768 -0.0000 0.0000 0.0000 30.8597 -13.3914 -15.3808 -44.4080 50.4751 -21.7812 0.0000 -0.0000 -44.9397 -27.1392 -32.8582 15.5419 7.1250 -0.0000 -0.0000 6.7405 -65.8347 -3.3973
0.00 0.00 0.00 -268.9040 67.6170 -273.7640 0.0000 0.0000 0.0000 -25.4217 16.8012 0.9815 9.5410 17.1435 57.9428 -0.0986 10.1969 -12.8090 0.4372 4.2430 11.7613 0.0000 0.0000 0.0000 12.3447 -0.5307 -37.2608 -7.7828 -15.9572 51.7766 0.1017 6.7108 6.3143 -0.8377 -5.8384 16.3162 -11.8245 -2.3336 17.6922 2.6602 -4.6796 4.8953 10.5411 -2.2251 -3.3234 7.0575 2.6082 -22.0531 -2.8698 2.5424 31.8568 -1.8758 1.7083 14.9115 0.0000 0.0000 0.0000 -23.9293 -15.1913 30.2246 42.7218 -49.6023 -20.4886 -0.0000 0.0000 -9.8793 39.7270 -19.3499 -15.3946 -7.1250 0.0000 -0.0000 7.1989 5.6016 -6.5146 0.0000 0.0000 0.0000 50.1402 -17.1706 -13.5718 -44.8233 50.6816 -22.1019 0.0000 -0.0000 -45.1336 -28.2876 -34.1589 16.8135 7.1250 -0.0000 -0.0000 6.2140 -67.5003 -3.3682
0.00 0.00 0.00 -264.7420 66.9379 -268.8010 0.0000 0.0000 0.0000 -8.0847 11.3705 1.6353 10.9239 17.8976 62.5341 0.1674 9.5623 -16.1638 1.0864 6.6244 18.6072 0.0000 0.0000 0.0000 14.3822 -8.8700 -24.1063 -3.0926 -10.8435 31.7540 0.4901 -12.2937 -4.7611 -3.8180 -11.9142 35.4293 -11.2160 -2.0823 16.8802 0.6232 -4.2762 4.7831 7.8161 -2.0020 -3.3576 4.4335 1.2765 -22.3612 -1.4825 1.1653 32.2555 -1.1076 1.0266 15.0312 -0.0000 -0.0000 0.0000 -37.6184 -8.6530 35.2417 37.8617 -46.7508 -16.8648 -0.0000 0.0000 -6.1679 39.0638 -18.3827 -14.3570 -7.1250 0.0000 -0.0000 6.9733 6.9513 -6.1248 -0.0000 -0.0000 0.0000 73.1869 -19.3748 -13.5802 -44.6835 50.6125 -21.9939 0.0000 -0.0000 -45.1643 -26.9489 -35.3306 16.3837 7.1250 -0.0000 -0.0000 9.0034 -68.2726 -5.0464
0.00 0.00 0.00 -271.0790 60.8932 -272.1100 0.0000 0.0000 0.0000 12.6842 -1.8336 -0.0024 10.5055 17.6845 61.1650 0.4271 8.3315 -18.0921 0.0008 0.1882 0.5171 0.0000 0.0000 0.0000 8.8710 -17.7496 -11.4336 -1.3477 -7.3494 20.7548 -0.5270 5.8889 -12.9691 -4.1966 -12.4175 37.2255 -18.7948 0.2365 17.4927 -3.0660 -2.9566 3.3694 7.8134 -1.0265 -5.2605 4.7003 1.1782 -20.2627 -1.8662 1.2125 31.3245 -1.2968 1.0310 14.1505 -0.0000 0.0000 0.0000 -61.1854 12.1902 20.3223 32.0677 -42.6011 -12.7866 -0.0000 0.0000 -11.1006 40.6050 -20.2105 -16.4970 -7.1250 0.0000 -0.0000 7.5633 4.3040 -7.0371 -0.0000 0.0000 0.0000 91.6036 -20.2843 4.3908 -42.7075 49.5947 -20.4778 0.0000 -0.0000 -36.9933 -25.7775 -30.4738 13.7618 7.1250 -0.0000 -0.0000 6.8617 -63.0155 -3.0085
0.00 0.00 0.00 -281.3720 69.1798 -278.8340 0.0000 0.0000 0.0000 35.6020 -8.3034 -10.6227 13.5780 18.9810 70.9114 0.3410 -3.9055 -10.3822 0.3639 -3.8751 -10.7255 0.0000 0.0000 0.0000 22.8534 -3.4111 -9.3711 -1.7825 -8.3976 23.9283 -2.6701 -1.2024 -31.3817 -4.6652 -12.9965 39.3555 -8.1822 2.4805 19.4976 -1.9088 1.6964 3.6952 2.1389 1.0881 -7.0510 3.7839 -0.6467 -20.5292 -1.4635 -1.3313 29.4146 -1.4074 -0.1712 13.2863 -0.0000 0.0000 0.0000 -74.4788 17.5865 4.8201 30.5991 -41.4014 -11.8038 -0.0000 0.0000 -19.3984 45.2355 -21.6409 -20.3968 -7.1250 0.0000 -0.0000 10.0027 0.9719 -9.9858 -0.0000 0.0000 0.0000 88.5546 -16.0809 25.3455 -45.0141 50.7754 -22.2497 0.0000 -0.0000 -26.3896 -24.2147 -26.8958 11.4994 7.1250 -0.0000 -0.0000 6.7681 -58.9336 -2.3115
0.00 0.00 0.00 -294.3040 69.8698 -291.6050 0.0000 0.0000 0.0000 38.0456 -4.8679 -30.3076 20.0091 20.0000 90.0265 0.5237 -2.7063 -13.0105 0.4191 -4.1551 -11.5135 0.0000 0.0000 0.0000 27.8020 8.9203 -3.4667 -3.0513 -10.7776 31.5335 -3.8022 -6.4739 -39.4478 -4.8362 -13.1969 40.1100 -3.7747 5.4381 24.2195 -2.7489 6.4586 6.9474 -2.7158 3.3855 -5.7887 2.2604 -2.8833 -19.8145 -1.4579 -4.0286 26.5784 -1.5331 -1.6073 11.9353 -0.0000 0.0000 0.0000 -82.9323 22.3239 -4.4338 21.8759 -32.8365 -6.5184 -0.0000 0.0000 -26.1675 39.3102 -17.1909 -13.6039 -7.1250 0.0000 -0.0000 7.3487 8.3314 -6.2595 -0.0000 0.0000 0.0000 80.5530 -0.0126 45.2436 -44.2453 50.3934 -21.6558 0.0000 -0.0000 -8.4496 -21.1648 -22.2764 8.3494 7.1250 -0.0000 -0.0000 8.1002 -53.5138 -1.7047
0.00 0.00 0.00 -310.1860 75.1764 -302.8920 0.0000 0.0000 0.0000 19.3349 11.6619 -64.7495 20.5848 19.9918 91.7102 0.2920 0.4573 -10.3833 2.9605 -10.6309 -31.0448 0.0000 0.0000 0.0000 29.8457 -2.8905 7.2474 -0.6185 -5.0330 14.0027 -2.2905 4.6489 -27.5725 -2.4776 -9.7971 28.3220 3.8786 8.2157 23.1816 -3.3707 11.7985 7.1842 -8.6891 6.1396 -3.2464 1.1144 -6.7660 -17.6382 0.4766 -9.4699 28.7350 -1.4246 -3.7340 12.4000 0.0000 0.0000 0.0000 -82.7032 36.9414 -10.5548 15.5625 -24.9239 -3.4595 -0.0000 0.0000 -12.8204 39.6261 -21.4019 -16.8127 -7.1250 0.0000 -0.0000 6.7277 3.1707 -6.3902 0.0000 0.0000 0.0000 75.2861 8.9394 50.4522 -52.0956 53.8065 -27.8567 0.0000 -0.0000 -5.2643 -23.1037 -23.1069 9.5045 7.1250 -0.0000 -0.0000 6.4042 -54.7518 -1.5388
0.00 0.00 0.00 -313.4670 77.0359 -300.7730 0.0000 0.0000 0.0000 -0.8540 8.8528 -78.7171 14.3068 19.2045 73.1393 0.0051 0.3582 1.2648 1.0317 -6.4609 -18.1276 0.0000 0.0000 0.0000 27.2108 -5.6404 8.5224 -0.4825 -4.4544 12.3588 -0.0784 14.8704 -11.2990 -0.8624 -5.9218 16.5578 4.2307 10.8541 18.8863 -4.6389 15.1238 5.7393 -10.0231 7.8446 -1.6457 0.5939 -8.9740 -17.4842 3.0694 -13.1780 28.4774 -0.9508 -5.0550 12.5258 -0.0000 0.0000 0.0000 -77.8322 46.9530 -6.1857 14.4940 -23.4365 -3.0218 -0.0000 0.0000 -11.2291 43.0717 -20.6678 -18.2607 -7.1250 0.0000 -0.0000 8.9499 2.9550 -8.5836 -0.0000 0.0000 0.0000 73.3366 6.6569 48.5650 -67.2914 57.9589 -40.4686 0.0000 -0.0000 -20.3418 -23.8314 -25.4689 10.7548 7.1250 -0.0000 -0.0000 6.5541 -57.3660 -1.9907
